# xmcd
#
# Track frame offsets: 
#        183
#        20363
#        38585
#        57038
#        76595
#        94133
#        113468
#        134115
#        153165
#        178085
#        188310
#
# Disc length: 2781 seconds
#
# Revision: 2
# Processed by: cddbd v1.5.2PL0 Copyright (c) Steve Scherf et al.
# Submitted via: ExactAudioCopy v0.95b4
#
DISCID=750adb0b
DTITLE=이승환 - Always
DYEAR=1992
DGENRE=가요
TTITLE0=너를 향한 마음
TTITLE1=세상에 뿌려진 사랑만큼
TTITLE2=회상이 지나간 오후
TTITLE3=먼시간속에 추억
TTITLE4=하숙생
TTITLE5=슬픔에 관하여
TTITLE6=나는 나일뿐
TTITLE7=이밤을 뒤로
TTITLE8=사랑하는 걸
TTITLE9=아무래도 좋아
TTITLE10=이세상은
EXTD=
EXTT0=
EXTT1=
EXTT2=
EXTT3=
EXTT4=
EXTT5=
EXTT6=
EXTT7=
EXTT8=
EXTT9=
EXTT10=
PLAYORDER=
